<?xml version="1.0" standalone="no"?><!DOCTYPE svg PUBLIC "-//W3C//DTD SVG 1.1//EN" "http://www.w3.org/Graphics/SVG/1.1/DTD/svg11.dtd"><svg t="1784689898350" class="icon" viewBox="0 0 1024 1024" version="1.1" xmlns="http://www.w3.org/2000/svg" p-id="2162" xmlns:xlink="http://www.w3.org/1999/xlink" width="200" height="200"><path d="M832.57 313.76h59.56v59.56h-59.56zM773.01 790.24h59.55v59.56h-59.55zM773.01 730.68h59.55v59.55h-59.55z" fill="#333333" p-id="2163"></path><path d="M773.01 671.12h59.55v59.56h-59.55zM773.01 611.57h59.55v59.55h-59.55zM773.01 552h59.55v59.56h-59.55zM773.01 492.45h59.55V552h-59.55zM773.01 432.88h59.55v59.56h-59.55z" fill="#333333" p-id="2164"></path><path d="M773.01 313.76h59.55v59.56h-59.55z" fill="#999999" p-id="2165"></path><path d="M773.01 254.21h59.55v59.55h-59.55zM713.45 849.8h59.56v59.56h-59.56z" fill="#333333" p-id="2166"></path><path d="M713.45 790.24h59.56v59.56h-59.56zM713.45 730.68h59.56v59.55h-59.56z" fill="#999999" p-id="2167"></path><path d="M713.45 671.12h59.56v59.56h-59.56zM713.45 611.57h59.56v59.55h-59.56zM713.45 552h59.56v59.56h-59.56zM713.45 492.45h59.56V552h-59.56z" fill="#999999" p-id="2168"></path><path d="M713.45 432.88h59.56v59.56h-59.56z" fill="#CCCCCC" p-id="2169"></path><path d="M713.45 313.76h59.56v59.56h-59.56z" fill="#999999" p-id="2170"></path><path d="M713.45 254.21h59.56v59.55h-59.56zM653.89 849.8h59.55v59.56h-59.55z" fill="#333333" p-id="2171"></path><path d="M653.89 790.24h59.55v59.56h-59.55zM653.89 730.68h59.55v59.55h-59.55z" fill="#999999" p-id="2172"></path><path d="M653.89 671.12h59.55v59.56h-59.55zM653.89 611.57h59.55v59.55h-59.55zM653.89 552h59.55v59.56h-59.55zM653.89 492.45h59.55V552h-59.55zM653.89 432.88h59.55v59.56h-59.55z" fill="#CCCCCC" p-id="2173"></path><path d="M653.89 313.76h59.55v59.56h-59.55z" fill="#999999" p-id="2174"></path><path d="M653.89 254.21h59.55v59.55h-59.55zM594.33 849.8h59.56v59.56h-59.56z" fill="#333333" p-id="2175"></path><path d="M594.33 790.24h59.56v59.56h-59.56z" fill="#999999" p-id="2176"></path><path d="M594.33 730.68h59.56v59.55h-59.56z" fill="#CCCCCC" p-id="2177"></path><path d="M594.33 671.12h59.56v59.56h-59.56z" fill="#CCCCCC" p-id="2178"></path><path d="M594.33 611.57h59.56v59.55h-59.56zM594.33 552h59.56v59.56h-59.56zM594.33 492.45h59.56V552h-59.56z" fill="#333333" p-id="2179"></path><path d="M594.33 432.88h59.56v59.56h-59.56zM594.33 313.76h59.56v59.56h-59.56z" fill="#CCCCCC" p-id="2180"></path><path d="M594.33 254.21h59.56v59.55h-59.56zM594.33 194.64h59.56v59.56h-59.56zM534.77 849.8h59.55v59.56h-59.55z" fill="#333333" p-id="2181"></path><path d="M534.77 790.24h59.55v59.56h-59.55z" fill="#999999" p-id="2182"></path><path d="M534.77 730.68h59.55v59.55h-59.55z" fill="#CCCCCC" p-id="2183"></path><path d="M534.77 671.12h59.55v59.56h-59.55zM534.77 611.57h59.55v59.55h-59.55zM534.77 552h59.55v59.56h-59.55zM534.77 492.45h59.55V552h-59.55zM534.77 432.88h59.55v59.56h-59.55zM534.77 313.76h59.55v59.56h-59.55z" fill="#CCCCCC" p-id="2184"></path><path d="M534.77 254.21h59.55v59.55h-59.55zM534.77 194.64h59.55v59.56h-59.55zM534.77 135.09h59.55v59.55h-59.55zM475.21 849.8h59.56v59.56h-59.56z" fill="#333333" p-id="2185"></path><path d="M475.21 790.24h59.56v59.56h-59.56z" fill="#999999" p-id="2186"></path><path d="M475.21 730.68h59.56v59.55h-59.56z" fill="#CCCCCC" p-id="2187"></path><path d="M475.21 671.12h59.56v59.56h-59.56zM475.21 611.57h59.56v59.55h-59.56zM475.21 552h59.56v59.56h-59.56zM475.21 492.45h59.56V552h-59.56zM475.21 432.88h59.56v59.56h-59.56zM475.21 313.76h59.56v59.56h-59.56z" fill="#CCCCCC" p-id="2188"></path><path d="M475.21 254.21h59.56v59.55h-59.56z" fill="#333333" p-id="2189"></path><path d="M475.21 194.64h59.56v59.56h-59.56z" fill="#CCCCCC" p-id="2190"></path><path d="M475.21 135.09h59.56v59.55h-59.56zM415.65 849.8h59.55v59.56h-59.55z" fill="#333333" p-id="2191"></path><path d="M415.65 790.24h59.55v59.56h-59.55z" fill="#999999" p-id="2192"></path><path d="M415.65 730.68h59.55v59.55h-59.55z" fill="#CCCCCC" p-id="2193"></path><path d="M415.65 671.12h59.55v59.56h-59.55zM415.65 611.57h59.55v59.55h-59.55zM415.65 552h59.55v59.56h-59.55zM415.65 492.45h59.55V552h-59.55zM415.65 432.88h59.55v59.56h-59.55zM415.65 313.76h59.55v59.56h-59.55z" fill="#CCCCCC" p-id="2194"></path><path d="M415.65 254.21h59.55v59.55h-59.55z" fill="#333333" p-id="2195"></path><path d="M415.65 194.64h59.55v59.56h-59.55z" fill="#CCCCCC" p-id="2196"></path><path d="M415.65 135.09h59.55v59.55h-59.55zM356.09 849.8h59.56v59.56h-59.56z" fill="#333333" p-id="2197"></path><path d="M356.09 790.24h59.56v59.56h-59.56z" fill="#E5E5E5" p-id="2198"></path><path d="M356.09 730.68h59.56v59.55h-59.56z" fill="#CCCCCC" p-id="2199"></path><path d="M356.09 671.12h59.56v59.56h-59.56z" fill="#CCCCCC" p-id="2200"></path><path d="M356.09 611.57h59.56v59.55h-59.56zM356.09 552h59.56v59.56h-59.56zM356.09 492.45h59.56V552h-59.56z" fill="#333333" p-id="2201"></path><path d="M356.09 432.88h59.56v59.56h-59.56zM356.09 313.76h59.56v59.56h-59.56z" fill="#CCCCCC" p-id="2202"></path><path d="M356.09 254.21h59.56v59.55h-59.56zM356.09 194.64h59.56v59.56h-59.56zM296.54 849.8h59.55v59.56h-59.55z" fill="#333333" p-id="2203"></path><path d="M296.54 790.24h59.55v59.56h-59.55zM296.54 730.68h59.55v59.55h-59.55z" fill="#E5E5E5" p-id="2204"></path><path d="M296.54 671.12h59.55v59.56h-59.55zM296.54 611.57h59.55v59.55h-59.55zM296.54 552h59.55v59.56h-59.55zM296.54 492.45h59.55V552h-59.55zM296.54 432.88h59.55v59.56h-59.55zM296.54 313.76h59.55v59.56h-59.55z" fill="#CCCCCC" p-id="2205"></path><path d="M296.54 254.21h59.55v59.55h-59.55zM236.97 849.8h59.56v59.56h-59.56z" fill="#333333" p-id="2206"></path><path d="M236.97 790.24h59.56v59.56h-59.56zM236.97 730.68h59.56v59.55h-59.56z" fill="#E5E5E5" p-id="2207"></path><path d="M236.97 671.12h59.56v59.56h-59.56zM236.97 611.57h59.56v59.55h-59.56zM236.97 552h59.56v59.56h-59.56zM236.97 492.45h59.56V552h-59.56zM236.97 432.88h59.56v59.56h-59.56zM236.97 313.76h59.56v59.56h-59.56z" fill="#E5E5E5" p-id="2208"></path><path d="M236.97 254.21h59.56v59.55h-59.56zM177.41 790.24h59.56v59.56h-59.56zM177.41 730.68h59.56v59.55h-59.56z" fill="#333333" p-id="2209"></path><path d="M177.41 671.12h59.56v59.56h-59.56zM177.41 611.57h59.56v59.55h-59.56zM177.41 552h59.56v59.56h-59.56zM177.41 492.45h59.56V552h-59.56zM177.41 432.88h59.56v59.56h-59.56z" fill="#333333" p-id="2210"></path><path d="M177.41 313.76h59.56v59.56h-59.56z" fill="#E5E5E5" p-id="2211"></path><path d="M177.41 254.21h59.56v59.55h-59.56zM117.85 313.76h59.55v59.56h-59.55z" fill="#333333" p-id="2212"></path></svg>