<?xml version="1.0" standalone="no"?><!DOCTYPE svg PUBLIC "-//W3C//DTD SVG 1.1//EN"
        "http://www.w3.org/Graphics/SVG/1.1/DTD/svg11.dtd">
<svg t="1784040521664" class="icon" viewBox="0 0 1091 1024" version="1.1" xmlns="http://www.w3.org/2000/svg" p-id="3417"
     xmlns:xlink="http://www.w3.org/1999/xlink" width="213.0859375" height="200">
    <path d="M409.538349 0.727777h68.165921v68.165921h-68.165921zM273.19899 68.892194h68.16592v68.165921h-68.16592zM136.880681 205.227043h68.165921v68.16592H136.880681z"
          fill="#231815" p-id="3418"></path>
    <path d="M205.039084 205.227043h68.16592v68.16592h-68.16592z" fill="#E83A3A" p-id="3419"></path>
    <path d="M0.539818 409.726308h68.165921v68.165921H0.539818z" fill="#231815" p-id="3420"></path>
    <path d="M68.71025 409.726308h68.16592v68.165921H68.71025zM136.880681 409.726308h68.165921v68.165921H136.880681z"
          fill="#FFFFFF" p-id="3421"></path>
    <path d="M205.039084 409.726308h68.16592v68.165921h-68.16592z" fill="#FFFFFF" p-id="3422"></path>
    <path d="M0.539818 546.05815h68.165921v68.16592H0.539818z" fill="#231815" p-id="3423"></path>
    <path d="M68.71025 546.05815h68.16592v68.16592H68.71025z" fill="#FFFFFF" p-id="3424"></path>
    <path d="M136.880681 546.05815h68.165921v68.16592H136.880681z" fill="#E83A3A" p-id="3425"></path>
    <path d="M205.039084 546.05815h68.16592v68.16592h-68.16592z" fill="#E83A3A" p-id="3426"></path>
    <path d="M1023.036147 546.05815h68.165921v68.16592h-68.165921z" fill="#231815" p-id="3427"></path>
    <path d="M954.865715 546.05815h68.165921v68.16592h-68.165921z" fill="#E83A3A" p-id="3428"></path>
    <path d="M886.696787 546.05815h68.165921v68.16592h-68.165921z" fill="#FFFFFF" p-id="3429"></path>
    <path d="M818.536881 546.05815h68.165921v68.16592h-68.165921z" fill="#FFFFFF" p-id="3430"></path>
    <path d="M954.865715 409.726308h68.165921v68.165921h-68.165921z" fill="#231815" p-id="3431"></path>
    <path d="M886.696787 409.726308h68.165921v68.165921h-68.165921z" fill="#FFFFFF" p-id="3432"></path>
    <path d="M818.536881 409.726308h68.165921v68.165921h-68.165921z" fill="#FFFFFF" p-id="3433"></path>
    <path d="M886.696787 273.394467h68.165921v68.165921h-68.165921z" fill="#231815" p-id="3434"></path>
    <path d="M818.536881 273.394467h68.165921v68.165921h-68.165921zM273.19899 137.059618h68.16592v68.165921h-68.16592zM273.19899 205.227043h68.16592v68.16592h-68.16592zM273.19899 273.394467h68.16592v68.165921h-68.16592z"
          fill="#E83A3A" p-id="3435"></path>
    <path d="M273.19899 341.558884h68.16592v68.165921h-68.16592zM273.19899 409.726308h68.16592v68.165921h-68.16592z"
          fill="#E83A3A" p-id="3436"></path>
    <path d="M273.19899 477.890725h68.16592v68.165921h-68.16592zM273.19899 546.05815h68.16592v68.16592h-68.16592z"
          fill="#E83A3A" p-id="3437"></path>
    <path d="M273.19899 614.225574h68.16592v68.165921h-68.16592zM273.19899 682.392999h68.16592v68.16592h-68.16592z"
          fill="#231815" p-id="3438"></path>
    <path d="M273.19899 750.557416h68.16592v68.16592h-68.16592z" fill="#FFFFFF" p-id="3439"></path>
    <path d="M273.19899 818.72484h68.16592v68.165921h-68.16592z" fill="#FFDFD2" p-id="3440"></path>
    <path d="M273.19899 886.889257h68.16592v68.165921h-68.16592zM136.880681 273.394467h68.165921v68.165921H136.880681z"
          fill="#231815" p-id="3441"></path>
    <path d="M205.039084 273.394467h68.16592v68.165921h-68.16592z" fill="#E83A3A" p-id="3442"></path>
    <path d="M0.539818 477.890725h68.165921v68.165921H0.539818z" fill="#231815" p-id="3443"></path>
    <path d="M68.71025 477.890725h68.16592v68.165921H68.71025zM136.880681 477.890725h68.165921v68.165921H136.880681z"
          fill="#FFFFFF" p-id="3444"></path>
    <path d="M205.039084 477.890725h68.16592v68.165921h-68.16592z" fill="#E83A3A" p-id="3445"></path>
    <path d="M1023.036147 477.890725h68.165921v68.165921h-68.165921z" fill="#231815" p-id="3446"></path>
    <path d="M954.865715 477.890725h68.165921v68.165921h-68.165921z" fill="#E83A3A" p-id="3447"></path>
    <path d="M886.696787 477.890725h68.165921v68.165921h-68.165921z" fill="#FFFFFF" p-id="3448"></path>
    <path d="M818.536881 477.890725h68.165921v68.165921h-68.165921z" fill="#FFFFFF" p-id="3449"></path>
    <path d="M954.865715 341.558884h68.165921v68.165921h-68.165921z" fill="#231815" p-id="3450"></path>
    <path d="M886.696787 341.558884h68.165921v68.165921h-68.165921z" fill="#E83A3A" p-id="3451"></path>
    <path d="M818.536881 341.558884h68.165921v68.165921h-68.165921z" fill="#FFFFFF" p-id="3452"></path>
    <path d="M886.696787 205.227043h68.165921v68.16592h-68.165921z" fill="#231815" p-id="3453"></path>
    <path d="M818.536881 205.227043h68.165921v68.16592h-68.165921z" fill="#E83A3A" p-id="3454"></path>
    <path d="M0.539818 614.225574h68.165921v68.165921H0.539818z" fill="#231815" p-id="3455"></path>
    <path d="M68.71025 614.225574h68.16592v68.165921H68.71025zM136.880681 614.225574h68.165921v68.165921H136.880681z"
          fill="#E83A3A" p-id="3456"></path>
    <path d="M205.039084 614.225574h68.16592v68.165921h-68.16592z" fill="#E83A3A" p-id="3457"></path>
    <path d="M1023.036147 614.225574h68.165921v68.165921h-68.165921z" fill="#231815" p-id="3458"></path>
    <path d="M954.865715 614.225574h68.165921v68.165921h-68.165921zM886.696787 614.225574h68.165921v68.165921h-68.165921z"
          fill="#E83A3A" p-id="3459"></path>
    <path d="M818.536881 614.225574h68.165921v68.165921h-68.165921z" fill="#FFFFFF" p-id="3460"></path>
    <path d="M205.039084 818.72484h68.16592v68.165921h-68.16592zM818.536881 818.72484h68.165921v68.165921h-68.165921zM0.539818 682.392999h68.165921v68.16592H0.539818z"
          fill="#231815" p-id="3461"></path>
    <path d="M68.71025 682.392999h68.16592v68.16592H68.71025z" fill="#E83A3A" p-id="3462"></path>
    <path d="M136.880681 682.392999h68.165921v68.16592H136.880681z" fill="#231815" p-id="3463"></path>
    <path d="M205.039084 682.392999h68.16592v68.16592h-68.16592zM1023.036147 682.392999h68.165921v68.16592h-68.165921z"
          fill="#231815" p-id="3464"></path>
    <path d="M954.865715 682.392999h68.165921v68.16592h-68.165921z" fill="#E83A3A" p-id="3465"></path>
    <path d="M886.696787 682.392999h68.165921v68.16592h-68.165921z" fill="#231815" p-id="3466"></path>
    <path d="M818.536881 682.392999h68.165921v68.16592h-68.165921zM205.039084 886.889257h68.16592v68.165921h-68.16592zM818.536881 886.889257h68.165921v68.165921h-68.165921zM273.19899 955.059689h68.16592v68.16592h-68.16592zM477.708781 955.059689h68.165921v68.16592h-68.165921zM68.71025 750.557416h68.16592v68.16592H68.71025z"
          fill="#231815" p-id="3467"></path>
    <path d="M886.696787 750.557416h68.165921v68.16592h-68.165921z" fill="#231815" p-id="3468"></path>
    <path d="M818.536881 750.557416h68.165921v68.16592h-68.165921zM341.367918 955.059689h68.16592v68.16592h-68.16592zM545.867184 955.059689h68.16592v68.16592h-68.16592zM682.208047 955.059689h68.165921v68.16592h-68.165921zM136.880681 750.557416h68.165921v68.16592H136.880681z"
          fill="#231815" p-id="3469"></path>
    <path d="M205.039084 750.557416h68.16592v68.16592h-68.16592z" fill="#FFFFFF" p-id="3470"></path>
    <path d="M954.865715 750.557416h68.165921v68.16592h-68.165921zM409.538349 955.059689h68.165921v68.16592h-68.165921zM614.037615 955.059689h68.165921v68.16592h-68.165921zM750.378479 955.059689h68.16592v68.16592h-68.16592zM68.71025 341.558884h68.16592v68.165921H68.71025z"
          fill="#231815" p-id="3471"></path>
    <path d="M136.880681 341.558884h68.165921v68.165921H136.880681z" fill="#FFFFFF" p-id="3472"></path>
    <path d="M205.039084 341.558884h68.16592v68.165921h-68.16592z" fill="#FFFFFF" p-id="3473"></path>
    <path d="M205.039084 137.059618h68.16592v68.165921h-68.16592z" fill="#231815" p-id="3474"></path>
    <path d="M545.867184 68.892194h68.16592v68.165921h-68.16592zM545.867184 137.059618h68.16592v68.165921h-68.16592z"
          fill="#E83A3A" p-id="3475"></path>
    <path d="M545.867184 205.227043h68.16592v68.16592h-68.16592zM545.867184 273.394467h68.16592v68.165921h-68.16592z"
          fill="#FFFFFF" p-id="3476"></path>
    <path d="M545.867184 341.558884h68.16592v68.165921h-68.16592zM545.867184 409.726308h68.16592v68.165921h-68.16592z"
          fill="#E83A3A" p-id="3477"></path>
    <path d="M545.867184 477.890725h68.16592v68.165921h-68.16592zM545.867184 546.05815h68.16592v68.16592h-68.16592z"
          fill="#E83A3A" p-id="3478"></path>
    <path d="M545.867184 614.225574h68.16592v68.165921h-68.16592z" fill="#231815" p-id="3479"></path>
    <path d="M545.867184 682.392999h68.16592v68.16592h-68.16592z" fill="#FFDFD2" p-id="3480"></path>
    <path d="M545.867184 750.557416h68.16592v68.16592h-68.16592zM545.867184 818.72484h68.16592v68.165921h-68.16592z"
          fill="#FFFFFF" p-id="3481"></path>
    <path d="M545.867184 886.889257h68.16592v68.165921h-68.16592z" fill="#FFDFD2" p-id="3482"></path>
    <path d="M477.708781 0.727777h68.165921v68.165921h-68.165921zM341.367918 68.892194h68.16592v68.165921h-68.16592z"
          fill="#231815" p-id="3483"></path>
    <path d="M341.367918 137.059618h68.16592v68.165921h-68.16592z" fill="#E83A3A" p-id="3484"></path>
    <path d="M341.367918 205.227043h68.16592v68.16592h-68.16592zM341.367918 273.394467h68.16592v68.165921h-68.16592z"
          fill="#FFFFFF" p-id="3485"></path>
    <path d="M341.367918 341.558884h68.16592v68.165921h-68.16592zM341.367918 409.726308h68.16592v68.165921h-68.16592z"
          fill="#E83A3A" p-id="3486"></path>
    <path d="M341.367918 477.890725h68.16592v68.165921h-68.16592zM341.367918 546.05815h68.16592v68.16592h-68.16592z"
          fill="#E83A3A" p-id="3487"></path>
    <path d="M341.367918 614.225574h68.16592v68.165921h-68.16592z" fill="#231815" p-id="3488"></path>
    <path d="M341.367918 682.392999h68.16592v68.16592h-68.16592z" fill="#FFDFD2" p-id="3489"></path>
    <path d="M341.367918 750.557416h68.16592v68.16592h-68.16592zM341.367918 818.72484h68.16592v68.165921h-68.16592z"
          fill="#FFFFFF" p-id="3490"></path>
    <path d="M341.367918 886.889257h68.16592v68.165921h-68.16592z" fill="#FFDFD2" p-id="3491"></path>
    <path d="M614.037615 68.892194h68.165921v68.165921h-68.165921zM614.037615 137.059618h68.165921v68.165921h-68.165921zM614.037615 205.227043h68.165921v68.16592h-68.165921zM614.037615 273.394467h68.165921v68.165921h-68.165921z"
          fill="#E83A3A" p-id="3492"></path>
    <path d="M614.037615 341.558884h68.165921v68.165921h-68.165921z" fill="#E83A3A" p-id="3493"></path>
    <path d="M614.037615 409.726308h68.165921v68.165921h-68.165921z" fill="#FFFFFF" p-id="3494"></path>
    <path d="M614.037615 477.890725h68.165921v68.165921h-68.165921zM614.037615 546.05815h68.165921v68.16592h-68.165921z"
          fill="#FFFFFF" p-id="3495"></path>
    <path d="M614.037615 614.225574h68.165921v68.165921h-68.165921zM614.037615 682.392999h68.165921v68.16592h-68.165921z"
          fill="#231815" p-id="3496"></path>
    <path d="M614.037615 750.557416h68.165921v68.16592h-68.165921z" fill="#231815" p-id="3497"></path>
    <path d="M614.037615 818.72484h68.165921v68.165921h-68.165921z" fill="#FFFFFF" p-id="3498"></path>
    <path d="M614.037615 886.889257h68.165921v68.165921h-68.165921z" fill="#FFDFD2" p-id="3499"></path>
    <path d="M545.867184 0.727777h68.16592v68.165921h-68.16592z" fill="#231815" p-id="3500"></path>
    <path d="M409.538349 68.892194h68.165921v68.165921h-68.165921z" fill="#E83A3A" p-id="3501"></path>
    <path d="M409.538349 137.059618h68.165921v68.165921h-68.165921zM409.538349 205.227043h68.165921v68.16592h-68.165921zM409.538349 273.394467h68.165921v68.165921h-68.165921z"
          fill="#FFFFFF" p-id="3502"></path>
    <path d="M409.538349 341.558884h68.165921v68.165921h-68.165921z" fill="#FFFFFF" p-id="3503"></path>
    <path d="M409.538349 409.726308h68.165921v68.165921h-68.165921z" fill="#E83A3A" p-id="3504"></path>
    <path d="M409.538349 477.890725h68.165921v68.165921h-68.165921zM409.538349 546.05815h68.165921v68.16592h-68.165921z"
          fill="#E83A3A" p-id="3505"></path>
    <path d="M409.538349 614.225574h68.165921v68.165921h-68.165921zM409.538349 682.392999h68.165921v68.16592h-68.165921z"
          fill="#231815" p-id="3506"></path>
    <path d="M409.538349 750.557416h68.165921v68.16592h-68.165921z" fill="#231815" p-id="3507"></path>
    <path d="M409.538349 818.72484h68.165921v68.165921h-68.165921z" fill="#FFFFFF" p-id="3508"></path>
    <path d="M409.538349 886.889257h68.165921v68.165921h-68.165921z" fill="#FFDFD2" p-id="3509"></path>
    <path d="M682.208047 68.892194h68.165921v68.165921h-68.165921z" fill="#231815" p-id="3510"></path>
    <path d="M682.208047 137.059618h68.165921v68.165921h-68.165921z" fill="#FFFFFF" p-id="3511"></path>
    <path d="M682.208047 205.227043h68.165921v68.16592h-68.165921zM682.208047 273.394467h68.165921v68.165921h-68.165921z"
          fill="#E83A3A" p-id="3512"></path>
    <path d="M682.208047 341.558884h68.165921v68.165921h-68.165921zM682.208047 409.726308h68.165921v68.165921h-68.165921z"
          fill="#FFFFFF" p-id="3513"></path>
    <path d="M682.208047 477.890725h68.165921v68.165921h-68.165921zM682.208047 546.05815h68.165921v68.16592h-68.165921z"
          fill="#FFFFFF" p-id="3514"></path>
    <path d="M682.208047 614.225574h68.165921v68.165921h-68.165921z" fill="#231815" p-id="3515"></path>
    <path d="M682.208047 682.392999h68.165921v68.16592h-68.165921z" fill="#FFDFD2" p-id="3516"></path>
    <path d="M682.208047 750.557416h68.165921v68.16592h-68.165921zM682.208047 818.72484h68.165921v68.165921h-68.165921z"
          fill="#FFFFFF" p-id="3517"></path>
    <path d="M682.208047 886.889257h68.165921v68.165921h-68.165921z" fill="#FFDFD2" p-id="3518"></path>
    <path d="M614.037615 0.727777h68.165921v68.165921h-68.165921z" fill="#231815" p-id="3519"></path>
    <path d="M477.708781 68.892194h68.165921v68.165921h-68.165921z" fill="#E83A3A" p-id="3520"></path>
    <path d="M477.708781 137.059618h68.165921v68.165921h-68.165921zM477.708781 205.227043h68.165921v68.16592h-68.165921zM477.708781 273.394467h68.165921v68.165921h-68.165921z"
          fill="#FFFFFF" p-id="3521"></path>
    <path d="M477.708781 341.558884h68.165921v68.165921h-68.165921z" fill="#FFFFFF" p-id="3522"></path>
    <path d="M477.708781 409.726308h68.165921v68.165921h-68.165921z" fill="#E83A3A" p-id="3523"></path>
    <path d="M477.708781 477.890725h68.165921v68.165921h-68.165921zM477.708781 546.05815h68.165921v68.16592h-68.165921z"
          fill="#E83A3A" p-id="3524"></path>
    <path d="M477.708781 614.225574h68.165921v68.165921h-68.165921z" fill="#231815" p-id="3525"></path>
    <path d="M477.708781 682.392999h68.165921v68.16592h-68.165921z" fill="#FFDFD2" p-id="3526"></path>
    <path d="M477.708781 750.557416h68.165921v68.16592h-68.165921zM477.708781 818.72484h68.165921v68.165921h-68.165921z"
          fill="#FFFFFF" p-id="3527"></path>
    <path d="M477.708781 886.889257h68.165921v68.165921h-68.165921z" fill="#FFDFD2" p-id="3528"></path>
    <path d="M750.378479 68.892194h68.16592v68.165921h-68.16592z" fill="#231815" p-id="3529"></path>
    <path d="M750.378479 137.059618h68.16592v68.165921h-68.16592z" fill="#FFFFFF" p-id="3530"></path>
    <path d="M750.378479 205.227043h68.16592v68.16592h-68.16592zM750.378479 273.394467h68.16592v68.165921h-68.16592z"
          fill="#E83A3A" p-id="3531"></path>
    <path d="M750.378479 341.558884h68.16592v68.165921h-68.16592zM750.378479 409.726308h68.16592v68.165921h-68.16592z"
          fill="#FFFFFF" p-id="3532"></path>
    <path d="M750.378479 477.890725h68.16592v68.165921h-68.16592zM750.378479 546.05815h68.16592v68.16592h-68.16592z"
          fill="#FFFFFF" p-id="3533"></path>
    <path d="M750.378479 614.225574h68.16592v68.165921h-68.16592zM750.378479 682.392999h68.16592v68.16592h-68.16592z"
          fill="#231815" p-id="3534"></path>
    <path d="M750.378479 750.557416h68.16592v68.16592h-68.16592z" fill="#FFFFFF" p-id="3535"></path>
    <path d="M750.378479 818.72484h68.16592v68.165921h-68.16592z" fill="#FFDFD2" p-id="3536"></path>
    <path d="M750.378479 886.889257h68.16592v68.165921h-68.16592zM818.536881 137.059618h68.165921v68.165921h-68.165921z"
          fill="#231815" p-id="3537"></path>
</svg>